<svg xmlns="http://www.w3.org/2000/svg" xmlns:xlink="http://www.w3.org/1999/xlink" version="1.1" x="0px" y="0px" viewBox="0 0 100 100" enable-background="new 0 0 100 100" xml:space="preserve"><path fill="#3fa7d6" d="M33.5,36.5c-4.581,0.639-18.5-4-18.5-4v-5c0,0,13.919,4.639,18.5,4c8.407-1.173,24.57-6.993,33-8  c4.593-0.549,18.5,4,18.5,4v5c0,0-13.907-4.549-18.5-4C58.07,29.507,41.907,35.327,33.5,36.5z"/><path fill="#3fa7d6" d="M33.5,46.493c-4.581,0.639-18.5-4-18.5-4v-5c0,0,13.919,4.639,18.5,4c8.407-1.173,24.57-6.993,33-8  c4.593-0.549,18.5,4,18.5,4v5c0,0-13.907-4.549-18.5-4C58.07,39.5,41.907,45.32,33.5,46.493z"/><path fill="#3fa7d6" d="M33.5,56.493c-4.581,0.639-18.5-4-18.5-4v-5c0,0,13.919,4.639,18.5,4c8.407-1.173,24.57-6.994,33-8  c4.593-0.549,18.5,4,18.5,4v5c0,0-13.907-4.549-18.5-4C58.07,49.5,41.907,55.32,33.5,56.493z"/><path fill="#3fa7d6" d="M33.5,66.493c-4.581,0.639-18.5-4-18.5-4v-5c0,0,13.919,4.639,18.5,4c8.407-1.173,24.57-6.993,33-8  c4.593-0.549,18.5,4,18.5,4v5c0,0-13.907-4.549-18.5-4C58.07,59.5,41.907,65.32,33.5,66.493z"/><path fill="#3fa7d6" d="M33.5,76.493c-4.581,0.639-18.5-4-18.5-4v-5c0,0,13.919,4.639,18.5,4c8.407-1.173,24.57-6.993,33-8  c4.593-0.549,18.5,4,18.5,4v5c0,0-13.907-4.549-18.5-4C58.07,69.5,41.907,75.32,33.5,76.493z"/><text x="0" y="115" fill="#000000" font-size="5px" font-weight="bold" font-family="'Helvetica Neue', Helvetica, Arial-Unicode, Arial, Sans-serif">Created by Jonah Bethlehem</text><text x="0" y="120" fill="#00000" font-size="5px" font-weight="bold" font-family="'Helvetica Neue', Helvetica, Arial-Unicode, Arial, Sans-serif">from the Noun Project</text></svg>