<svg xmlns="http://www.w3.org/2000/svg" viewBox="0 0 90 80" x="0px" y="0px" fill="#3fa7d6"><title>Air</title><path d="M69.69,41.27h22a3.35,3.35,0,1,0,0-6.71H65.82L52.9,12.2a3.48,3.48,0,0,0-5.8,0L34.18,34.56H8.35a3.35,3.35,0,1,0,0,6.71h22L5.45,84.33a3.35,3.35,0,0,0,2.9,5H91.65a3.35,3.35,0,0,0,2.9-5ZM50,20.58l8.07,14H41.93ZM14.16,82.65,38.06,41.27H61.94L85.84,82.65Z" transform="translate(-5 -10.64)"/><text x="0" y="93.72" fill="#000000" font-size="5px" font-weight="bold" font-family="'Helvetica Neue', Helvetica, Arial-Unicode, Arial, Sans-serif">Created by Kameo Gregson</text><text x="0" y="98.72" fill="#000000" font-size="5px" font-weight="bold" font-family="'Helvetica Neue', Helvetica, Arial-Unicode, Arial, Sans-serif">from the Noun Project</text></svg>