<svg xmlns="http://www.w3.org/2000/svg" viewBox="0 0 48 48" x="0px" y="0px" fill="#3fa7d6"><title>Cloud vol.1</title><g data-name="Layer 16"><path d="M21.63672,23.18164H9.75391v-2H21.63672a6.23242,6.23242,0,0,0,0-12.46484v-2a8.23242,8.23242,0,0,1,0,16.46484Z"/><path d="M39.2168,27.17676H30.75488v-2H39.2168a4.15137,4.15137,0,0,0,0-8.30274v-2a6.15137,6.15137,0,0,1,0,12.30274Z"/><path d="M20.49219,43.46191v-2c5.10742,0,9.26269-2.79589,9.26269-6.23242,0-3.4375-4.15527-6.2334-9.26269-6.2334H3.63184v-2H20.49219c6.21,0,11.26269,3.69336,11.26269,8.2334C31.75488,39.76855,26.70215,43.46191,20.49219,43.46191Z"/></g><text x="0" y="63" fill="#000000" font-size="5px" font-weight="bold" font-family="'Helvetica Neue', Helvetica, Arial-Unicode, Arial, Sans-serif">Created by Fahmi Ramdani</text><text x="0" y="68" fill="#000000" font-size="5px" font-weight="bold" font-family="'Helvetica Neue', Helvetica, Arial-Unicode, Arial, Sans-serif">from the Noun Project</text></svg>