<?xml version="1.0" encoding="UTF-8"?>
<svg width="216px" height="220px" viewBox="0 0 216 220" version="1.1" xmlns="http://www.w3.org/2000/svg" xmlns:xlink="http://www.w3.org/1999/xlink">
    <!-- Generator: Sketch 52 (66869) - http://www.bohemiancoding.com/sketch -->
    <title>Group 2</title>
    <desc>Created with Sketch.</desc>
    <g id="Page-1" stroke="none" stroke-width="1" fill="none" fill-rule="evenodd">
        <g id="Group-2">
            <g id="air3" transform="translate(0.000000, 6.000000)" fill="#3FA7D6">
                <g id="Group">
                    <path d="M44.0748577,40.5976547 L15.3350381,40.5976547 L15.3350381,35.7555495 L44.0748577,35.7555495 C52.3998654,35.7555495 59.1486177,28.9999665 59.1486177,20.6665326 C59.1486177,12.3330987 52.3998654,5.57751579 44.0748577,5.57751579 L44.0748577,0.735410526 C55.0713822,0.735410758 63.9858266,9.65887801 63.9858266,20.6665326 C63.9858266,31.6741873 55.0713822,40.5976545 44.0748577,40.5976547 Z" id="Path"></path>
                    <path d="M86.5941209,50.2700505 L66.1280819,50.2700505 L66.1280819,45.4279453 L86.5941209,45.4279453 C92.1393485,45.4279453 96.6346437,40.9281002 96.6346437,35.37726 C96.6346437,29.8264198 92.1393485,25.3265747 86.5941209,25.3265747 L86.5941209,20.4844695 C94.8108655,20.4844695 101.471853,27.1521989 101.471853,35.37726 C101.471853,43.6023211 94.8108655,50.2700505 86.5941209,50.2700505 Z" id="Path"></path>
                    <path d="M41.3066921,89.6972558 L41.3066921,84.8551505 C53.6595219,84.8551505 63.7094772,78.0861537 63.7094772,69.7661337 C63.7094772,61.4437653 53.6595219,54.6747442 41.3066921,54.6747442 L0.528171163,54.6747442 L0.528171163,49.8326389 L41.3066921,49.8326389 C56.326227,49.8326389 68.5466865,58.7744579 68.5466865,69.7661337 C68.5466865,80.7554368 56.3261302,89.6972558 41.3066921,89.6972558 Z" id="Path"></path>
                </g>
            </g>
            <g id="earth3" transform="translate(141.000000, 0.000000)" fill="#206A5D" fill-rule="nonzero">
                <g id="Group">
                    <path d="M35.2941176,86.5086957 L35.2941176,100.780435 L39.7058824,100.780435 L39.7058824,86.5086957 L74.6691176,86.5086957 L57.5735294,67.5163043 L69.8161765,67.5163043 L53.4926471,48.3043478 L65.625,48.3043478 L51.1764706,30.6293478 L58.6764706,30.6293478 L36.9485294,0.219565217 L15.2205882,30.6293478 L22.7205882,30.6293478 L8.27205882,48.3043478 L20.4044118,48.3043478 L4.08088235,67.5163043 L17.4264706,67.5163043 L0.330882353,86.5086957 L35.2941176,86.5086957 Z M13.6764706,63.125 L30,43.9130435 L17.6470588,43.9130435 L32.0955882,26.2380435 L23.8235294,26.2380435 L36.9485294,7.79456522 L50.1838235,26.2380435 L41.9117647,26.2380435 L56.3602941,43.9130435 L43.8970588,43.9130435 L60.3308824,63.125 L47.6470588,63.125 L64.7426471,82.1173913 L10.2573529,82.1173913 L27.3529412,63.125 L13.6764706,63.125 Z" id="Shape"></path>
                </g>
            </g>
            <g id="fire3" transform="translate(21.000000, 128.000000)" fill="#F28123" fill-rule="nonzero">
                <path d="M44.1483739,92 C43.8771397,92 43.6020854,91.9422918 43.3461321,91.8230281 C42.6699569,91.5075566 42.2382744,90.8265996 42.2382744,90.0763928 C42.2382744,87.9950499 42.211533,86.1791648 42.1504098,84.5171682 C41.9937817,80.1852049 40.3358153,77.7883904 38.0169546,74.8683547 C35.1976478,71.3289176 32.2981168,67.208551 30.8770028,62.468783 L29.8226279,63.976891 C26.7741092,68.2819238 23.6300854,72.7293036 20.6235889,77.2728636 C18.5454007,80.4083433 18.1786616,84.0631969 19.454608,89.0645755 C19.626517,89.3531166 19.7220219,89.6916714 19.7220219,90.0533096 C19.7220219,91.1151407 18.8662974,91.9769167 17.8119225,91.9769167 C17.7928215,91.9769167 17.7660801,91.9807639 17.7355185,91.9769167 C17.4260824,91.9769167 17.1166463,91.8999724 16.8339516,91.7460839 C8.24614437,87.1063434 2.48910459,79.5696506 0.621027311,70.528697 C-1.25851056,61.4300352 1.17495616,51.7312079 7.28727444,43.9252101 C11.5200548,38.5160268 14.9467733,33.1260795 17.4604642,27.9054097 C21.0247098,20.4879805 22.3121168,12.0471924 21.3914489,2.09829618 C21.3150449,1.28268674 21.7658284,0.50939667 22.5031268,0.170841811 C23.2404252,-0.163865833 24.1190709,0.0015643817 24.6768199,0.594035384 C29.4367878,5.64158055 33.3295705,16.4830305 35.296973,26.6204401 L37.6654963,19.0875945 C37.9138092,18.287374 38.6511076,17.7410695 39.483911,17.7410695 C39.4877312,17.7410695 39.4877312,17.7410695 39.4877312,17.7410695 C40.3205345,17.7410695 41.0540127,18.2835267 41.3099661,19.0799001 L41.5659194,19.8839679 C41.7531091,20.4456612 41.9173777,20.9496463 42.0587251,21.465173 C44.8703915,31.6372076 48.7364328,39.8009963 53.8707801,46.4182049 C64.2922828,59.8565245 63.2340877,74.8991324 51.0514733,86.6562193 C49.8748521,87.7873003 48.6180066,88.8375898 47.2885774,89.9417403 L45.3899385,91.5383343 C45.03466,91.8422642 44.5915169,92 44.1483739,92 Z M25.4981627,8.72319921 C25.4217587,16.4599472 23.9013196,23.3349191 20.8986432,29.5827952 C18.262706,35.0573811 14.69082,40.6858556 10.2861306,46.3104829 C4.87290872,53.223927 2.71449632,61.7647428 4.36100206,69.7515597 C5.71717268,76.3226017 9.44950703,82.00109 15.0193571,86.07529 C14.5647534,81.8279654 15.3593548,78.2808338 17.4413632,75.1376597 C20.4707809,70.5633219 23.6377258,66.0813172 26.7053456,61.7455067 L30.3650961,56.544073 C30.8311604,55.8823521 31.6601436,55.5784222 32.4471046,55.8015606 C33.2264251,56.0246991 33.7841742,56.7171976 33.8338368,57.5289598 C34.1929355,63.2189898 37.6540357,68.2703822 40.9928896,72.4638458 C43.5982652,75.7339779 45.7681382,78.8848464 45.9706088,84.3748213 C45.9897098,84.9057368 46.0049905,85.4443468 46.0202713,86.0098873 C46.8530747,85.3096943 47.6514963,84.6171958 48.4117159,83.8785306 C59.1923172,73.4756631 60.090064,60.6875228 50.8642836,48.788089 C46.0546531,42.5863795 42.307038,35.1497143 39.4609898,26.1395384 L36.4201114,35.8114351 C36.1450571,36.6847528 35.2702316,37.2156683 34.3877656,37.1425713 C33.4823785,37.0425437 32.7718215,36.3077258 32.6992377,35.3920888 C31.9160969,26.1587744 28.9554427,15.5904767 25.4981627,8.72319921 Z" id="Shape"></path>
            </g>
            <g id="water3" transform="translate(151.000000, 128.000000)" fill="#1B4079" fill-rule="nonzero">
                <path d="M29.2908451,2.374875 L27.501132,0 L25.7114189,2.374875 C24.6597785,3.7665 0,36.682875 0,55.200375 C8.04343854e-15,74.390625 12.3366813,90 27.501132,90 C42.6633187,90 55,74.390625 55,55.200375 C55,36.682875 30.3413535,3.767625 29.2908451,2.374875 Z M27.501132,85.552875 C14.8033384,85.552875 4.47484872,71.937 4.47484872,55.2015 C4.47484872,40.88925 21.8025769,15.47325 27.501132,7.5015 C33.1996872,15.47325 50.5251513,40.890375 50.5251513,55.2015 C50.5251513,71.937 40.1966616,85.552875 27.501132,85.552875 Z" id="Shape"></path>
            </g>
        </g>
    </g>
</svg>