<svg xmlns="http://www.w3.org/2000/svg" viewBox="0 0 90 80.55000000000001" x="0px" y="0px" fill="#206a5d"><title>Earth</title><path d="M91.65,58.67h-22L94.55,15.61a3.35,3.35,0,0,0-2.9-5H8.35a3.35,3.35,0,0,0-2.9,5L30.31,58.67h-22a3.35,3.35,0,0,0,0,6.71H34.18L47.1,87.74a3.35,3.35,0,0,0,5.8,0L65.82,65.37H91.65a3.35,3.35,0,0,0,0-6.71ZM14.16,17.29H85.84L61.95,58.67H38.05ZM50,79.36l-8.07-14H58.07Z" transform="translate(-5 -10.58)"/><text x="0" y="93.84" fill="#000000" font-size="5px" font-weight="bold" font-family="'Helvetica Neue', Helvetica, Arial-Unicode, Arial, Sans-serif">Created by Kameo Gregson</text><text x="0" y="98.84" fill="#000000" font-size="5px" font-weight="bold" font-family="'Helvetica Neue', Helvetica, Arial-Unicode, Arial, Sans-serif">from the Noun Project</text></svg>