<?xml version="1.0" encoding="UTF-8"?>
<svg width="92px" height="168px" viewBox="0 0 92 168" version="1.1" xmlns="http://www.w3.org/2000/svg" xmlns:xlink="http://www.w3.org/1999/xlink">
    <!-- Generator: Sketch 52 (66869) - http://www.bohemiancoding.com/sketch -->
    <title>Group</title>
    <desc>Created with Sketch.</desc>
    <g id="Page-1" stroke="none" stroke-width="1" fill="none" fill-rule="evenodd">
        <g id="Group" fill-rule="nonzero">
            <g id="air2" transform="translate(0.000000, 89.000000)" fill="#3FA7D6">
                <path d="M65.69,30.63 L87.69,30.63 C88.8886261,30.6300001 89.9962023,29.9905407 90.5955153,28.9525 C91.1948284,27.9144594 91.1948284,26.6355406 90.5955153,25.5975 C89.9962023,24.5594593 88.8886261,23.9199999 87.69,23.92 L61.82,23.92 L48.9,1.56 C48.2552446,0.587994737 47.1664063,0.00364237841 46,0.00364237841 C44.8335937,0.00364237841 43.7447554,0.587994737 43.1,1.56 L30.18,23.92 L4.35,23.92 C3.15137391,23.9199999 2.04379771,24.5594593 1.44448465,25.5975 C0.845171594,26.6355406 0.845171594,27.9144594 1.44448465,28.9525 C2.04379771,29.9905407 3.15137391,30.6300001 4.35,30.63 L26.35,30.63 L1.45,73.69 C0.864387262,74.7247219 0.871085756,75.9923162 1.46760128,77.0207913 C2.06411681,78.0492663 3.16106703,78.6845146 4.35,78.69 L87.65,78.69 C88.838933,78.6845146 89.9358832,78.0492663 90.5323987,77.0207913 C91.1289142,75.9923162 91.1356127,74.7247219 90.55,73.69 L65.69,30.63 Z M46,9.94 L54.07,23.94 L37.93,23.94 L46,9.94 Z M10.16,72.01 L34.06,30.63 L57.94,30.63 L81.84,72.01 L10.16,72.01 Z" id="Shape"></path>
            </g>
            <g id="earth2" fill="#206A5D">
                <path d="M87.65,48.09 L65.65,48.09 L90.55,5.03 C91.1356127,3.99527809 91.1289142,2.72768379 90.5323987,1.69920875 C89.9358832,0.670733696 88.838933,0.0354853937 87.65,0.03 L4.35,0.03 C3.16106703,0.0354853937 2.06411681,0.670733696 1.46760128,1.69920875 C0.871085756,2.72768379 0.864387262,3.99527809 1.45,5.03 L26.31,48.09 L4.31,48.09 C2.45708466,48.09 0.955,49.5920847 0.955,51.445 C0.955,53.2979153 2.45708466,54.8 4.31,54.8 L30.18,54.8 L43.1,77.16 C43.698729,78.1953376 44.8040065,78.832949 46,78.832949 C47.1959935,78.832949 48.301271,78.1953376 48.9,77.16 L61.82,54.79 L87.65,54.79 C89.5029153,54.79 91.005,53.2879153 91.005,51.435 C91.005,49.5820847 89.5029153,48.08 87.65,48.08 L87.65,48.09 Z M10.16,6.71 L81.84,6.71 L57.95,48.09 L34.05,48.09 L10.16,6.71 Z M46,68.78 L37.93,54.78 L54.07,54.78 L46,68.78 Z" id="Shape"></path>
            </g>
        </g>
    </g>
</svg>