<svg xmlns="http://www.w3.org/2000/svg" xmlns:xlink="http://www.w3.org/1999/xlink" version="1.1" x="0px" y="0px" viewBox="0 0 100 100" enable-background="new 0 0 100 100" xml:space="preserve"><path fill="#f28123" d="M36.496,66.504c0.639,4.581-4,18.5-4,18.5h-5c0,0,4.639-13.919,4-18.5c-1.173-8.407-6.993-24.57-8-33  c-0.549-4.593,4-18.5,4-18.5h5c0,0-4.549,13.907-4,18.5C29.503,41.934,35.323,58.097,36.496,66.504z"/><path fill="#f28123" d="M46.489,66.504c0.639,4.581-4,18.5-4,18.5h-5c0,0,4.639-13.919,4-18.5c-1.173-8.407-6.993-24.57-8-33  c-0.549-4.593,4-18.5,4-18.5h5c0,0-4.549,13.907-4,18.5C39.496,41.934,45.316,58.097,46.489,66.504z"/><path fill="#f28123" d="M56.489,66.504c0.639,4.581-4,18.5-4,18.5h-5c0,0,4.639-13.919,4-18.5c-1.173-8.407-6.994-24.57-8-33  c-0.549-4.593,4-18.5,4-18.5h5c0,0-4.549,13.907-4,18.5C49.496,41.934,55.316,58.097,56.489,66.504z"/><path fill="#f28123" d="M66.489,66.504c0.639,4.581-4,18.5-4,18.5h-5c0,0,4.639-13.919,4-18.5c-1.173-8.407-6.993-24.57-8-33  c-0.549-4.593,4-18.5,4-18.5h5c0,0-4.549,13.907-4,18.5C59.496,41.934,65.316,58.097,66.489,66.504z"/><path fill="#f28123" d="M76.489,66.504c0.639,4.581-4,18.5-4,18.5h-5c0,0,4.639-13.919,4-18.5c-1.173-8.407-6.993-24.57-8-33  c-0.549-4.593,4-18.5,4-18.5h5c0,0-4.549,13.907-4,18.5C69.496,41.934,75.316,58.097,76.489,66.504z"/><text x="0" y="115" fill="#000000" font-size="5px" font-weight="bold" font-family="'Helvetica Neue', Helvetica, Arial-Unicode, Arial, Sans-serif">Created by Jonah Bethlehem</text><text x="0" y="120" fill="#00000" font-size="5px" font-weight="bold" font-family="'Helvetica Neue', Helvetica, Arial-Unicode, Arial, Sans-serif">from the Noun Project</text></svg>