<svg xmlns="http://www.w3.org/2000/svg" xmlns:xlink="http://www.w3.org/1999/xlink" version="1.1" x="0px" y="0px" viewBox="0 0 24 24" enable-background="new 0 0 24 24" xml:space="preserve" fill="#f28123"><g><path d="M15.573,23.957c-0.071,0-0.143-0.015-0.21-0.046c-0.177-0.082-0.29-0.259-0.29-0.454c0-0.541-0.007-1.013-0.023-1.445   c-0.041-1.126-0.475-1.749-1.082-2.508c-0.738-0.92-1.497-1.991-1.869-3.223l-0.276,0.392c-0.798,1.119-1.621,2.275-2.408,3.456   c-0.544,0.815-0.64,1.765-0.306,3.065c0.045,0.075,0.07,0.163,0.07,0.257c0,0.276-0.224,0.5-0.5,0.5c-0.005,0-0.012,0.001-0.02,0   c-0.081,0-0.162-0.02-0.236-0.06c-2.248-1.206-3.755-3.165-4.244-5.515c-0.492-2.365,0.145-4.886,1.745-6.915   c1.108-1.406,2.005-2.807,2.663-4.164C9.52,5.369,9.857,3.175,9.616,0.589c-0.02-0.212,0.098-0.413,0.291-0.501   c0.193-0.087,0.423-0.044,0.569,0.11c1.246,1.312,2.265,4.13,2.78,6.765l0.62-1.958c0.065-0.208,0.258-0.35,0.476-0.35   c0.001,0,0.001,0,0.001,0c0.218,0,0.41,0.141,0.477,0.348l0.067,0.209c0.049,0.146,0.092,0.277,0.129,0.411   c0.736,2.644,1.748,4.766,3.092,6.486c2.728,3.493,2.451,7.403-0.738,10.459c-0.308,0.294-0.637,0.567-0.985,0.854l-0.497,0.415   C15.805,23.916,15.689,23.957,15.573,23.957z M10.691,2.311c-0.02,2.011-0.418,3.798-1.204,5.422   c-0.69,1.423-1.625,2.886-2.778,4.348c-1.417,1.797-1.982,4.017-1.551,6.093c0.355,1.708,1.332,3.184,2.79,4.243   c-0.119-1.104,0.089-2.026,0.634-2.843c0.793-1.189,1.622-2.354,2.425-3.481l0.958-1.352c0.122-0.172,0.339-0.251,0.545-0.193   c0.204,0.058,0.35,0.238,0.363,0.449c0.094,1.479,1,2.792,1.874,3.882c0.682,0.85,1.25,1.669,1.303,3.096   c0.005,0.138,0.009,0.278,0.013,0.425c0.218-0.182,0.427-0.362,0.626-0.554c2.822-2.704,3.057-6.028,0.642-9.121   c-1.259-1.612-2.24-3.545-2.985-5.887l-0.796,2.514c-0.072,0.227-0.301,0.365-0.532,0.346c-0.237-0.026-0.423-0.217-0.442-0.455   C12.371,6.843,11.596,4.096,10.691,2.311z"/></g><text x="0" y="39" fill="#000000" font-size="5px" font-weight="bold" font-family="'Helvetica Neue', Helvetica, Arial-Unicode, Arial, Sans-serif">Created by Atif Arshad</text><text x="0" y="44" fill="#000000" font-size="5px" font-weight="bold" font-family="'Helvetica Neue', Helvetica, Arial-Unicode, Arial, Sans-serif">from the Noun Project</text></svg>