<svg xmlns="http://www.w3.org/2000/svg" xmlns:xlink="http://www.w3.org/1999/xlink" version="1.1" x="0px" y="0px" viewBox="0 0 100 100" enable-background="new 0 0 100 100" xml:space="preserve"><path fill="#1b4079" d="M33.5,28.5c-4.593-0.549-18.5,4-18.5,4v-5c0,0,13.907-4.549,18.5-4c8.43,1.007,24.593,6.827,33,8  c4.581,0.639,18.5-4,18.5-4v5c0,0-13.919,4.639-18.5,4C58.093,35.327,41.93,29.507,33.5,28.5z"/><path fill="#1b4079" d="M33.5,38.493c-4.593-0.549-18.5,4-18.5,4v-5c0,0,13.907-4.549,18.5-4c8.43,1.007,24.593,6.827,33,8  c4.581,0.639,18.5-4,18.5-4v5c0,0-13.919,4.639-18.5,4C58.093,45.32,41.93,39.5,33.5,38.493z"/><path fill="#1b4079" d="M33.5,48.493c-4.593-0.549-18.5,4-18.5,4v-5c0,0,13.907-4.549,18.5-4c8.43,1.007,24.593,6.827,33,8  c4.581,0.639,18.5-4,18.5-4v5c0,0-13.919,4.639-18.5,4C58.093,55.32,41.93,49.5,33.5,48.493z"/><path fill="#1b4079" d="M33.5,58.493c-4.593-0.549-18.5,4-18.5,4v-5c0,0,13.907-4.549,18.5-4c8.43,1.007,24.593,6.827,33,8  c4.581,0.639,18.5-4,18.5-4v5c0,0-13.919,4.639-18.5,4C58.093,65.32,41.93,59.5,33.5,58.493z"/><path fill="#1b4079" d="M33.5,68.493c-4.593-0.549-18.5,4-18.5,4v-5c0,0,13.907-4.549,18.5-4c8.43,1.007,24.593,6.827,33,8  c4.581,0.639,18.5-4,18.5-4v5c0,0-13.919,4.639-18.5,4C58.093,75.32,41.93,69.5,33.5,68.493z"/><text x="0" y="115" fill="#000000" font-size="5px" font-weight="bold" font-family="'Helvetica Neue', Helvetica, Arial-Unicode, Arial, Sans-serif">Created by Jonah Bethlehem</text><text x="0" y="120" fill="#00000" font-size="5px" font-weight="bold" font-family="'Helvetica Neue', Helvetica, Arial-Unicode, Arial, Sans-serif">from the Noun Project</text></svg>