<svg xmlns="http://www.w3.org/2000/svg" xmlns:xlink="http://www.w3.org/1999/xlink" version="1.1" x="0px" y="0px" viewBox="0 0 96 100" enable-background="new 0 0 96 96" xml:space="preserve" fill="#1b4079"><path d="M49.582,10.111L48.001,8l-1.581,2.111c-0.929,1.237-22.713,30.496-22.713,46.956C23.707,74.125,34.605,88,48.001,88  c13.394,0,24.292-13.875,24.292-30.933C72.293,40.607,50.51,11.349,49.582,10.111z M48.001,84.047  c-11.217,0-20.341-12.103-20.341-26.979c0-12.722,15.307-35.314,20.341-42.4c5.034,7.086,20.339,29.679,20.339,42.4  C68.34,71.944,59.216,84.047,48.001,84.047z"/><text x="0" y="111" fill="#000000" font-size="5px" font-weight="bold" font-family="'Helvetica Neue', Helvetica, Arial-Unicode, Arial, Sans-serif">Created by Fahmihorizon</text><text x="0" y="116" fill="#000000" font-size="5px" font-weight="bold" font-family="'Helvetica Neue', Helvetica, Arial-Unicode, Arial, Sans-serif">from the Noun Project</text></svg>